<?xml version="1.0" encoding="UTF-8"?><!-- Generator: Adobe Illustrator 22.1.0, SVG Export Plug-In . SVG Version: 6.00 Build 0)  --><svg xmlns="http://www.w3.org/2000/svg" enable-background="new 0 0 199.9 200" id="图层_1" version="1.1" viewBox="0 0 199.9 200" x="0px" xml:space="preserve" y="0px">
<g>
	<g fill="#FF2742" id="change1_1">
		<path d="m194.6 11c-1.6-2.1-3.4-4.1-5.6-5.6-4.5-3.4-10-5.4-16-5.4h-146c-6 0-11.5 2-16 5.4-2.2 1.6-4.1 3.4-5.7 5.6-3.3 4.5-5.3 10-5.3 16.1v145.9c0 6 2 11.6 5.4 16 1.6 2.1 3.4 4.1 5.6 5.6 4.5 3.4 10 5.4 16 5.4h145.9c6 0 11.6-2 16-5.4 2.1-1.6 4.1-3.4 5.6-5.6 3.4-4.5 5.4-10 5.4-16v-145.9c0.1-6.1-2.1-11.6-5.3-16.1zm-179.7 117.6c-2.5-4.3-4.7-8.3-7-12.3 0-0.5 4.5-14.2 3.5-29.6h12.3c0-0.1 0.4 28.9-8.8 41.9zm28.7-1.6c0.1 7.2-4.9 7.2-4.9 7.2h-7.1l-7.4-9.8h7.8v-54.2h11.7c0.1 17.8 0 39.1-0.1 56.8zm17.1 0.9c-5.6-4.9-8.6-19.6-8.6-41.4h11.6c-0.9 11.5 2.8 26.8 2.8 26.8s-3.4 7.6-5.8 14.6zm25.3 5.1c-0.3 0.6-1.3 1.2-2 1.2-5.4 0.1-10.9 0-17.2 0 2.4-4.7 4.3-8.6 6-11.9h18.7c-2 4.1-3.7 7.5-5.5 10.7zm4.6-14.7c-4.1 0-8.3 0.1-12.4-0.3-3-0.3-4.1-2.6-3-5.4 1.4-3.5 3.1-6.9 4.6-10.3 0.5-1.2 1.1-2.4 1.8-4.1h-5.6c-4.8-0.2-6.5-2.4-4.5-6.9 3.2-7.1 6.8-14 10.2-21h11.7c-2.9 5.7-6.1 11.3-8.1 16.8 4.8-0.3 9.1-0.5 14.2-0.8-2.7 5.4-5.1 10.3-7.5 15.1-0.3 0.6-0.6 1.3-1 2-2.5 5-2.5 5.1 3.1 5.2 0.6 0 1.2 0.1 2.2 0.2-1.6 3.1-3 5.9-4.4 8.6-0.2 0.3-0.9 0.9-1.3 0.9zm43.2 16h-42c2-4 5.7-11.2 5.7-11.2h12v-36.8h-7.5v-11.5h27v11.3h-7.4v37h12.2v11.2zm55.6-8.5c0 8.5-8.3 8.2-8.3 8.2h-10.8l-4.5-9.7h11.7s0.1-8.8 0-11.8c-0.1-2.6-1.5-4.2-4.1-4.2-5.2-0.1-10.4 0-16.2 0v25.8h-11.6v-25.7h-11.7v-12h11.4v-10.1h-7.6v-11.3h7.7v-4.8h11.7l0.1 4.8h9.3s8.6-0.2 8.6 8.2c0 2.5 0.1 10.6 0.1 13.3 9.9 0 14.1 2 14.1 8.8v20.5h0.1zm-5-39.1h-6.2v-6c0-2.2 1.1-4.2 2.9-5.3 2.1-1.3 5-2.2 7.7 0.4l0.3 0.3c3.7 4 0.7 10.6-4.7 10.6z" fill="inherit"/>
		<polygon fill="inherit" points="157.3 96.5 165.1 96.5 165.1 86.3 157.2 86.3"/>
	</g>
</g>
</svg>