<?xml version="1.0" encoding="UTF-8"?><svg xmlns="http://www.w3.org/2000/svg" xmlns:xlink="http://www.w3.org/1999/xlink" height="150.0" preserveAspectRatio="xMidYMid meet" version="1.0" viewBox="0.0 0.0 150.0 150.0" width="150.0" zoomAndPan="magnify"><g id="change1_1"><path d="M150,127.5c0,12.4-10.1,22.5-22.5,22.5h-105C10.1,150,0,139.9,0,127.5v-105C0,10.1,10.1,0,22.5,0h105 C139.9,0,150,10.1,150,22.5V127.5z" fill="#2DC100"/></g><g fill="#FFF" id="change2_1"><path d="M100.4,55.9c-12.1,0.6-22.6,4.3-31.2,12.6c-8.6,8.4-12.6,18.6-11.5,31.4c-4.7-0.6-9-1.2-13.4-1.6 c-1.5-0.1-3.3,0.1-4.5,0.8c-4.2,2.4-8.2,5.1-13,8c0.9-4,1.4-7.4,2.5-10.8c0.7-2.5,0.4-3.8-1.9-5.4C12.8,80.6,6.7,65.3,11.3,49.5 C15.5,34.9,25.9,26,40.1,21.4c19.3-6.3,41,0.1,52.8,15.5C97.1,42.4,99.7,48.6,100.4,55.9z M44.7,51c0.1-2.9-2.4-5.5-5.4-5.6 c-3-0.1-5.6,2.2-5.6,5.2c-0.1,3,2.2,5.5,5.3,5.6C42,56.3,44.6,54,44.7,51z M73.8,45.4c-3,0.1-5.5,2.6-5.5,5.5 c0.1,3,2.5,5.4,5.6,5.3c3.1,0,5.4-2.4,5.4-5.5C79.3,47.8,76.8,45.4,73.8,45.4z" fill="inherit"/><path d="M127.6,131.4c-3.8-1.7-7.3-4.3-11.1-4.7c-3.7-0.4-7.7,1.8-11.6,2.2c-11.9,1.2-22.5-2.1-31.3-10.2 c-16.7-15.4-14.3-39.1,5-51.8c17.2-11.2,42.4-7.5,54.5,8.1c10.6,13.6,9.3,31.7-3.6,43.1c-3.7,3.3-5.1,6-2.7,10.4 C127.3,129.4,127.3,130.4,127.6,131.4z M84,89.2c2.4,0,4.4-1.9,4.5-4.3c0.1-2.6-2-4.7-4.5-4.7c-2.5,0-4.6,2.2-4.6,4.7 C79.5,87.2,81.5,89.2,84,89.2z M112.1,80.2c-2.4,0-4.4,1.9-4.5,4.3c-0.1,2.6,1.9,4.7,4.4,4.7c2.4,0,4.4-1.8,4.5-4.3 C116.6,82.3,114.6,80.2,112.1,80.2z" fill="inherit"/></g></svg>