<?xml version="1.0" encoding="UTF-8"?><svg xmlns="http://www.w3.org/2000/svg" xmlns:xlink="http://www.w3.org/1999/xlink" height="225.6" preserveAspectRatio="xMidYMid meet" version="1.0" viewBox="69.7 99.7 285.8 225.6" width="285.8" zoomAndPan="magnify"><g><g id="change1_1"><path d="M 219.519531 102.121094 L 123.523438 181.914062 L 219.523438 246.980469 L 315.519531 181.914062 L 219.519531 102.121094" fill="#fabd26"/></g><path d="M 2195.195312 3230.789062 L 1235.234375 2432.859375 L 2195.234375 1782.195312 L 3155.195312 2432.859375 Z M 2195.195312 3230.789062" fill="none" stroke="#313185" stroke-linecap="round" stroke-linejoin="round" stroke-miterlimit="10" stroke-width="45" transform="matrix(.1 0 0 -.1 0 425.2)"/><g id="change2_1"><path d="M 261.195312 127.902344 L 139.976562 127.902344 L 139.976562 312.042969 L 299.074219 312.042969 L 299.074219 161.050781 L 261.195312 127.902344" fill="#f14a4d"/></g><path d="M 2611.953125 2972.976562 L 1399.765625 2972.976562 L 1399.765625 1131.570312 L 2990.742188 1131.570312 L 2990.742188 2641.492188 Z M 2611.953125 2972.976562" fill="none" stroke="#313185" stroke-linecap="round" stroke-linejoin="round" stroke-miterlimit="10" stroke-width="45" transform="matrix(.1 0 0 -.1 0 425.2)"/><g id="change2_2"><path d="M 2611.953125 2641.492188 L 2990.742188 2641.492188 L 2611.953125 2972.976562 Z M 2611.953125 2641.492188" fill="#f14a4d" stroke="#313185" stroke-linecap="round" stroke-linejoin="round" stroke-miterlimit="10" stroke-width="45" transform="matrix(.1 0 0 -.1 0 425.2)"/></g><g id="change3_1"><path d="M 3155.195312 1131.570312 L 1235.234375 1131.570312 L 1235.234375 2432.859375 Z M 3155.195312 1131.570312" fill="#48c2c6" stroke="#313185" stroke-linecap="round" stroke-linejoin="round" stroke-miterlimit="10" stroke-width="45" transform="matrix(.1 0 0 -.1 0 425.2)"/></g><g id="change1_2"><path d="M 1235.234375 1131.570312 L 3155.195312 1131.570312 L 3155.195312 2432.859375 Z M 1235.234375 1131.570312" fill="#fabd26" stroke="#313185" stroke-linecap="round" stroke-linejoin="round" stroke-miterlimit="10" stroke-width="45" transform="matrix(.1 0 0 -.1 0 425.2)"/></g><path d="M 1618.28125 2526.101562 L 2801.367188 2526.101562" fill="none" stroke="#313185" stroke-linecap="round" stroke-linejoin="round" stroke-miterlimit="10" stroke-width="45" transform="matrix(.1 0 0 -.1 0 425.2)"/><path d="M 1618.28125 2354.265625 L 2801.367188 2354.265625" fill="none" stroke="#313185" stroke-linecap="round" stroke-linejoin="round" stroke-miterlimit="10" stroke-width="45" transform="matrix(.1 0 0 -.1 0 425.2)"/><path d="M 1759.765625 2182.390625 L 2630.742188 2182.390625" fill="none" stroke="#313185" stroke-linecap="round" stroke-linejoin="round" stroke-miterlimit="10" stroke-width="45" transform="matrix(.1 0 0 -.1 0 425.2)"/><path d="M 1025.898438 1436.570312 L 1025.898438 1277.46875" fill="none" stroke="#313185" stroke-linecap="round" stroke-linejoin="round" stroke-miterlimit="10" stroke-width="45" transform="matrix(.1 0 0 -.1 0 425.2)"/><path d="M 1105.429688 1357 L 946.328125 1357" fill="none" stroke="#313185" stroke-linecap="round" stroke-linejoin="round" stroke-miterlimit="10" stroke-width="45" transform="matrix(.1 0 0 -.1 0 425.2)"/><path d="M 847.695312 1277.46875 L 847.695312 1021.21875" fill="none" stroke="#313185" stroke-linecap="round" stroke-linejoin="round" stroke-miterlimit="10" stroke-width="45" transform="matrix(.1 0 0 -.1 0 425.2)"/><path d="M 975.820312 1149.34375 L 719.609375 1149.34375" fill="none" stroke="#313185" stroke-linecap="round" stroke-linejoin="round" stroke-miterlimit="10" stroke-width="45" transform="matrix(.1 0 0 -.1 0 425.2)"/><path d="M 1012.539062 3168.015625 L 1012.539062 3008.875" fill="none" stroke="#313185" stroke-linecap="round" stroke-linejoin="round" stroke-miterlimit="10" stroke-width="45" transform="matrix(.1 0 0 -.1 0 425.2)"/><path d="M 1092.070312 3088.445312 L 932.929688 3088.445312" fill="none" stroke="#313185" stroke-linecap="round" stroke-linejoin="round" stroke-miterlimit="10" stroke-width="45" transform="matrix(.1 0 0 -.1 0 425.2)"/><path d="M 3391.289062 1389.226562 L 3391.289062 1230.125" fill="none" stroke="#313185" stroke-linecap="round" stroke-linejoin="round" stroke-miterlimit="10" stroke-width="45" transform="matrix(.1 0 0 -.1 0 425.2)"/><path d="M 3470.859375 1309.65625 L 3311.757812 1309.65625" fill="none" stroke="#313185" stroke-linecap="round" stroke-linejoin="round" stroke-miterlimit="10" stroke-width="45" transform="matrix(.1 0 0 -.1 0 425.2)"/><path d="M 3404.296875 2916.53125 L 3404.296875 2660.359375" fill="none" stroke="#313185" stroke-linecap="round" stroke-linejoin="round" stroke-miterlimit="10" stroke-width="45" transform="matrix(.1 0 0 -.1 0 425.2)"/><path d="M 3532.382812 2788.445312 L 3276.171875 2788.445312" fill="none" stroke="#313185" stroke-linecap="round" stroke-linejoin="round" stroke-miterlimit="10" stroke-width="45" transform="matrix(.1 0 0 -.1 0 425.2)"/></g></svg>